<svg xmlns="http://www.w3.org/2000/svg" width="500" height="500" viewBox="0 0 500 500">
<g>
<path d="M 235.30 278.27 C237.01,278.84 238.28,278.48 238.83,277.69 C239.57,282.22 240.01,285.06 240.01,285.25 C240.01,285.35 239.65,285.44 239.00,285.52 C238.97,283.09 237.31,282.00 233.64,281.98 C231.36,281.98 229.99,281.64 230.58,281.23 C231.48,280.63 231.65,268.99 230.98,253.50 C230.96,252.95 231.05,251.60 231.18,250.50 C231.56,247.42 230.03,239.29 228.54,236.41 C226.50,232.48 223.99,231.18 219.50,231.71 C217.30,231.98 212.46,232.17 208.75,232.15 C204.86,232.12 202.00,232.53 202.00,233.11 C202.00,233.66 201.44,233.80 200.75,233.41 C199.80,232.87 199.77,233.00 200.65,233.95 C201.36,234.73 201.51,236.21 201.04,237.86 C200.62,239.32 200.41,241.71 200.56,243.17 C200.87,246.03 198.43,248.97 195.37,249.42 C194.22,249.59 193.60,250.47 193.67,251.84 C193.73,253.03 193.83,255.48 193.89,257.28 C193.97,259.78 194.66,260.93 196.75,262.06 C199.68,263.65 201.31,263.79 204.50,262.70 C206.26,262.10 206.53,260.99 206.78,253.26 C207.12,242.76 207.50,241.29 210.10,240.47 C213.02,239.54 217.26,242.59 216.48,245.06 C216.13,246.15 216.33,247.00 216.93,247.00 C217.52,247.00 218.01,248.69 218.02,250.75 C218.03,255.01 220.01,261.38 221.50,262.00 C222.75,262.51 225.00,266.76 225.00,268.61 C225.00,269.38 224.31,270.00 223.46,270.00 C222.58,270.00 222.04,269.30 222.21,268.40 C222.60,266.26 218.21,263.15 217.61,265.14 C217.41,265.78 217.06,266.91 216.76,267.83 C216.85,266.60 216.70,263.91 216.37,260.72 C216.55,260.76 216.82,260.58 217.20,260.20 C218.13,259.27 218.13,258.73 217.20,257.80 C216.48,257.08 216.16,257.07 216.05,257.96 C215.99,257.54 215.94,257.11 215.88,256.69 C214.96,249.90 214.32,247.20 213.41,246.62 C214.26,246.58 214.56,246.04 214.29,245.01 C213.75,242.92 210.29,242.91 208.98,245.00 C207.87,246.75 207.69,251.36 208.68,252.35 C209.68,253.35 210.78,251.86 211.17,249.00 C211.34,247.71 211.87,246.87 212.62,246.67 C211.91,247.30 211.15,249.82 209.98,255.72 C209.97,253.93 209.78,253.79 209.00,255.00 C208.47,255.82 208.02,256.84 208.02,257.25 C208.01,257.66 208.45,258.00 209.00,258.00 C209.25,258.00 209.48,257.79 209.65,257.45 C209.19,259.88 208.66,262.78 208.06,266.25 L 206.05 277.79 C206.88,272.60 207.67,266.30 207.41,265.61 C206.69,263.74 202.49,264.77 200.31,267.36 C198.52,269.47 198.53,269.48 200.53,267.79 C202.53,266.11 202.57,266.16 202.61,271.44 C202.64,275.49 202.33,276.68 201.33,276.30 C200.61,276.02 200.32,275.28 200.70,274.65 C201.10,273.97 200.74,274.02 199.80,274.78 C198.49,275.84 197.95,275.80 196.72,274.58 C195.91,273.76 194.89,273.41 194.46,273.80 C194.03,274.18 194.02,273.91 194.44,273.18 C194.86,272.46 195.83,272.11 196.60,272.40 C197.93,272.91 198.53,271.67 197.99,269.50 C197.86,268.95 197.73,267.94 197.71,267.25 C197.68,266.56 197.44,266.23 197.16,266.50 C196.89,266.78 195.88,266.29 194.92,265.42 C193.34,263.99 193.16,264.24 192.87,270.18 C192.82,268.65 192.72,266.77 192.58,264.39 C192.13,256.46 192.39,250.60 193.49,243.89 C193.90,241.38 194.33,238.75 194.70,236.50 C194.63,237.12 194.54,237.79 194.45,238.50 C194.11,241.25 193.60,244.32 193.32,245.33 C192.92,246.79 193.30,247.10 195.16,246.83 C197.12,246.55 197.45,245.99 197.21,243.41 C197.03,241.55 197.52,239.81 198.44,239.05 C199.60,238.08 199.71,237.33 198.89,235.80 C197.20,232.64 198.59,229.20 201.75,228.72 C203.72,228.42 203.32,228.26 200.33,228.15 C198.65,228.09 197.59,228.03 196.85,228.49 C196.34,228.82 195.99,229.40 195.70,230.42 L 196.09 228.00 L 217.87 228.00 C209.96,228.00 205.00,228.39 205.00,229.00 C205.00,229.55 205.79,230.04 206.75,230.09 C207.71,230.13 212.77,230.32 218.00,230.51 C230.17,230.93 229.80,230.83 230.55,234.24 C231.40,238.08 231.87,237.35 231.46,233.47 L 235.25 256.04 C234.73,253.14 234.28,250.96 234.12,250.78 C233.75,250.38 233.47,254.36 233.48,259.61 C233.51,267.89 233.77,269.36 235.45,270.58 C236.51,271.36 237.44,272.00 237.51,272.00 C237.73,272.00 237.08,267.24 236.28,262.23 C237.07,266.93 237.78,271.24 238.37,274.83 C238.17,274.60 237.93,274.36 237.66,274.13 C236.62,273.27 236.07,273.56 235.21,275.44 C234.38,277.27 234.40,277.97 235.30,278.27 ZM 274.25 284.25 C273.98,285.45 274.45,285.98 275.79,286.00 C273.47,286.00 271.76,285.97 270.52,285.90 C271.42,285.67 271.50,284.96 271.21,283.00 C270.97,281.35 270.37,280.00 269.89,280.00 C269.40,280.00 269.00,279.52 269.00,278.94 C269.00,278.36 269.39,278.12 269.86,278.41 C270.83,279.01 270.51,274.37 269.55,273.23 C269.66,272.89 269.75,272.64 269.84,272.50 C270.69,271.09 271.13,269.08 271.54,264.71 C271.74,262.62 272.55,257.22 273.36,252.71 C273.70,250.82 274.10,248.43 274.51,245.95 C274.16,248.77 273.71,251.61 273.42,252.63 C272.91,254.47 273.17,254.69 275.39,254.27 C277.94,253.78 278.39,252.01 276.66,249.25 C276.19,248.50 276.40,247.97 277.19,247.92 C278.19,247.86 278.20,247.72 277.26,247.34 C276.31,246.96 276.35,246.50 277.45,245.41 C278.57,244.29 278.65,243.31 277.85,240.99 C276.88,238.21 276.12,237.80 275.49,239.81 C275.70,238.52 275.88,237.31 276.03,236.25 L 276.99 229.76 C276.93,230.71 276.71,232.52 276.45,234.12 L 275.91 237.50 L 277.70 234.06 C279.17,231.25 280.14,230.57 283.00,230.37 C284.92,230.23 289.20,229.70 292.50,229.19 C298.35,228.29 298.22,228.26 287.75,228.13 C280.20,228.04 277.59,228.23 277.09,229.03 L 277.24 228.00 L 294.62 228.00 C298.19,228.00 301.51,228.05 304.28,228.13 C302.91,228.29 302.25,228.59 302.50,229.00 C302.84,229.55 305.12,230.00 307.56,230.00 C310.00,230.00 312.00,229.55 312.00,229.00 C312.00,228.85 311.82,228.70 311.51,228.57 C311.83,228.63 312.01,228.69 312.01,228.75 C312.02,230.29 321.02,282.47 321.56,284.20 C322.04,285.69 321.31,285.95 311.00,285.99 C317.21,285.95 318.89,285.63 318.34,284.75 C317.06,282.70 317.09,281.00 318.42,281.00 C319.11,281.00 319.67,280.33 319.67,279.50 C319.67,278.67 319.29,278.00 318.83,278.00 C318.38,278.00 318.00,277.36 318.00,276.57 C318.00,275.78 317.17,274.87 316.16,274.55 C315.15,274.23 313.72,272.85 312.99,271.48 C312.26,270.12 311.32,269.00 310.90,269.00 C310.48,269.00 310.49,267.76 310.92,266.25 C311.35,264.74 311.51,257.50 311.29,250.18 C311.01,241.27 311.25,236.41 311.99,235.51 C313.41,233.80 310.65,232.02 307.76,232.77 C306.68,233.06 305.42,232.68 304.96,231.93 C304.42,231.06 301.55,230.43 297.01,230.17 C291.17,229.84 289.56,230.09 287.90,231.59 C286.76,232.62 284.65,233.32 283.06,233.20 C279.54,232.93 278.49,235.85 280.44,240.52 C281.18,242.29 281.43,244.31 280.99,245.02 C280.55,245.74 280.36,247.71 280.58,249.41 C281.24,254.64 279.34,257.20 274.58,257.45 C274.07,257.48 273.55,260.42 273.42,264.00 C273.28,267.58 272.99,272.08 272.76,274.00 C272.53,275.92 272.86,278.62 273.50,280.00 C274.13,281.38 274.47,283.29 274.25,284.25 ZM 345.00 284.08 C345.00,284.32 345.13,284.45 345.36,284.48 C343.89,284.94 342.32,285.23 340.21,285.44 C340.51,285.33 340.62,285.20 340.54,285.07 C340.23,284.56 338.80,284.35 337.38,284.61 C335.49,284.95 334.14,284.36 332.30,282.38 C330.27,280.19 329.63,279.95 328.84,281.10 C328.57,281.48 328.41,281.16 328.35,280.31 C330.07,278.14 338.64,262.65 343.53,253.13 C342.91,254.70 342.78,255.63 343.28,255.51 C347.87,254.37 348.74,253.73 348.27,251.91 C347.99,250.85 348.32,249.32 349.00,248.49 C349.99,247.30 349.99,247.00 349.00,247.00 C348.03,247.00 348.02,246.68 348.95,245.56 C349.83,244.50 349.85,243.60 349.03,242.06 C347.69,239.54 347.18,239.44 347.36,241.73 C347.46,242.96 346.73,243.49 344.86,243.53 C343.21,243.57 342.39,243.14 342.68,242.40 C343.38,240.58 341.70,240.01 340.54,241.23 C341.24,239.88 342.12,238.22 343.08,236.47 C345.21,232.59 346.23,230.74 347.10,230.05 C347.18,230.62 347.82,231.63 349.00,233.00 C351.67,236.08 351.53,236.33 348.13,234.57 C344.97,232.94 343.81,233.35 344.74,235.76 C345.15,236.84 344.95,237.09 344.10,236.56 C343.13,235.96 343.14,236.25 344.13,237.83 C344.83,238.95 345.76,239.65 346.19,239.38 C346.63,239.11 347.78,239.35 348.74,239.92 C350.97,241.21 351.26,241.23 350.52,240.03 C349.82,238.90 354.41,237.52 355.87,238.42 C356.42,238.76 357.10,238.65 357.39,238.17 C357.95,237.26 353.41,232.63 350.08,230.56 C354.42,232.90 357.44,236.27 359.31,241.14 C357.62,239.45 353.14,240.32 353.13,242.83 C353.08,252.45 351.62,257.32 348.71,257.59 C348.05,257.65 346.38,257.77 345.00,257.86 C343.44,257.97 342.95,258.32 343.70,258.79 C344.43,259.26 344.86,261.93 344.81,265.72 C344.72,272.05 344.11,272.99 339.75,273.47 C338.79,273.58 337.70,273.97 337.34,274.33 C336.17,275.50 336.05,280.36 337.16,281.69 C338.45,283.25 342.99,282.40 344.68,280.28 C345.33,279.47 346.34,279.09 346.91,279.45 C348.76,280.59 352.24,278.01 351.68,275.90 C351.10,273.65 353.66,270.66 355.55,271.38 C356.88,271.89 357.85,270.24 358.64,266.07 C358.90,264.73 359.42,263.16 359.80,262.57 C360.73,261.15 360.78,254.64 359.86,253.99 C358.78,253.21 358.26,242.04 359.34,242.71 C359.59,242.87 359.77,242.86 359.86,242.73 C361.25,247.16 361.83,252.71 361.70,259.67 C361.68,261.04 361.65,262.24 361.62,263.31 C361.48,263.34 361.27,263.58 361.00,264.00 C360.47,264.83 360.02,266.31 360.02,267.31 C360.01,268.30 360.45,268.84 361.00,268.50 C361.13,268.42 361.25,268.28 361.37,268.08 C361.26,269.12 361.11,269.96 360.89,270.70 C360.77,270.40 360.08,270.78 358.81,271.96 C357.61,273.08 356.02,274.00 355.29,274.00 C354.55,274.00 353.67,275.39 353.33,277.09 C352.75,280.02 351.82,280.90 348.83,281.36 C346.87,281.65 345.00,282.98 345.00,284.08 ZM 138.00 277.50 L 138.00 269.00 L 139.75 269.00 L 149.25 268.99 C158.46,268.98 162.64,268.69 164.14,267.71 C162.87,268.65 159.56,268.97 153.13,268.99 C146.52,269.00 145.89,269.16 147.07,270.58 C148.08,271.80 149.42,272.01 152.94,271.51 C155.45,271.15 158.18,270.86 159.00,270.87 C159.82,270.88 161.91,270.68 163.62,270.42 C166.13,270.05 166.75,269.48 166.75,267.54 C166.75,266.21 166.18,264.90 165.49,264.63 C164.74,264.35 164.44,264.72 164.64,265.69 C164.11,264.75 162.33,264.42 157.49,264.25 C155.25,264.16 153.45,264.08 151.95,263.94 C152.86,263.82 152.62,263.35 151.52,261.67 C150.68,260.39 150.20,259.14 150.45,258.88 C150.70,258.63 150.03,258.43 148.95,258.43 C147.88,258.43 147.00,258.78 147.00,259.21 C147.00,259.65 146.30,260.00 145.44,260.00 C144.58,260.00 144.16,259.55 144.50,259.00 C144.84,258.45 144.42,258.00 143.56,258.00 C142.70,258.00 141.96,257.44 141.92,256.75 C141.62,252.29 141.16,250.71 139.91,249.92 C138.72,249.17 138.73,249.03 140.00,249.00 C141.29,248.97 141.30,248.84 140.06,248.06 C138.89,247.32 138.86,246.87 139.90,245.62 C140.60,244.78 140.84,243.55 140.43,242.89 C139.96,242.13 140.12,241.95 140.85,242.40 C141.54,242.84 142.06,242.40 142.15,241.31 C142.65,235.37 143.84,233.19 146.94,232.51 C149.19,232.02 151.97,229.96 152.53,228.80 C155.81,228.52 160.93,228.41 169.73,228.30 L 189.98 228.06 L 189.91 230.87 C189.92,229.51 189.83,228.50 189.66,228.33 C189.41,228.08 187.47,228.05 185.35,228.27 C182.04,228.62 181.81,228.79 183.76,229.46 C185.00,229.89 186.80,231.87 187.76,233.87 L 189.50 237.50 L 189.81 233.15 C189.84,232.81 189.86,232.48 189.87,232.15 L 189.74 236.78 L 189.58 242.47 C189.37,242.34 189.03,242.36 188.57,242.50 C187.71,242.78 186.30,243.22 185.44,243.49 C184.58,243.76 184.17,244.46 184.53,245.05 C184.61,245.18 184.71,245.30 184.83,245.40 L 176.50 245.21 C170.52,245.08 165.00,245.26 162.91,245.63 C164.34,245.28 167.16,245.01 170.00,245.00 C174.41,244.98 176.03,244.67 175.03,244.04 C174.22,243.53 173.90,242.76 174.33,242.34 C174.75,241.92 175.86,242.05 176.80,242.65 C177.95,243.37 179.41,243.40 181.30,242.75 C184.48,241.64 184.41,239.66 181.17,239.18 C177.94,238.71 178.54,237.00 181.94,237.00 C185.75,237.00 186.48,235.67 184.41,232.50 L 182.74 229.95 L 168.04 230.31 C154.71,230.63 152.93,230.89 148.92,233.10 C144.26,235.67 144.04,236.35 144.16,247.50 C144.18,248.60 144.20,250.74 144.21,252.25 C144.22,253.58 144.22,254.31 144.58,254.73 C145.02,255.24 146.01,255.29 148.23,255.41 C150.56,255.54 154.77,258.00 152.66,258.00 C152.26,258.00 152.41,258.90 153.00,260.00 C153.59,261.10 154.74,262.00 155.55,262.00 C156.36,262.00 157.89,262.54 158.94,263.19 C160.39,264.10 161.46,264.11 163.35,263.25 C166.22,261.94 168.20,263.51 168.74,267.52 C169.28,271.57 166.86,272.76 157.95,272.81 C153.47,272.84 149.57,273.10 149.27,273.40 C148.98,273.69 147.92,273.49 146.93,272.96 C145.74,272.33 144.91,272.34 144.49,273.01 C144.15,273.57 143.44,273.77 142.93,273.46 C140.78,272.13 142.16,278.42 144.49,280.58 C145.99,281.97 146.74,283.50 146.38,284.44 C145.91,285.68 147.06,285.96 154.94,285.99 L 141.32 286.00 C143.71,285.98 143.91,285.71 143.07,284.13 C142.52,283.10 142.35,281.98 142.70,281.63 C143.05,281.28 142.77,281.00 142.08,281.00 C141.17,281.00 140.92,279.33 141.16,275.00 C141.45,269.82 141.26,269.00 139.75,269.00 C138.22,269.00 138.00,270.07 138.00,277.50 ZM 282.30 284.05 C282.35,286.39 285.59,286.23 286.34,284.04 C285.92,285.90 285.09,286.00 276.54,286.00 C276.33,286.00 276.12,286.00 275.92,286.00 C277.01,285.99 278.17,285.54 278.50,285.00 C278.84,284.45 278.53,283.99 277.81,283.98 C276.86,283.97 276.91,283.70 278.00,283.00 C278.83,282.47 279.11,282.02 278.63,282.02 C278.15,282.01 278.24,281.42 278.82,280.71 C279.41,280.00 279.67,278.03 279.40,276.32 C278.97,273.60 279.28,273.10 281.87,272.19 C283.50,271.63 285.09,271.43 285.41,271.75 C285.74,272.07 286.06,271.02 286.14,269.42 C286.22,267.81 286.47,264.70 286.70,262.50 C287.27,256.93 287.29,250.87 286.73,248.50 C286.47,247.40 286.66,245.98 287.16,245.36 C287.66,244.73 288.00,243.83 287.92,243.36 C287.54,241.26 288.15,240.41 290.15,240.26 C292.57,240.08 298.00,242.60 298.00,243.90 C298.00,244.37 299.35,245.32 301.00,246.00 C304.29,247.36 304.09,246.42 304.35,262.17 C304.50,270.94 304.25,271.96 301.84,272.39 C297.16,273.21 296.35,274.03 296.49,277.76 C296.58,279.82 297.19,282.51 297.86,283.75 C298.95,285.78 299.67,285.99 308.16,286.00 C307.65,286.00 307.12,286.00 306.57,286.00 L 291.00 286.00 L 291.00 282.64 C291.00,281.84 291.05,280.72 291.14,279.50 C291.11,280.95 291.42,282.00 291.94,282.00 C292.52,282.00 293.00,282.70 293.00,283.56 C293.00,284.48 292.53,284.83 291.85,284.40 C291.11,283.95 290.96,284.13 291.44,284.90 C292.42,286.49 294.62,285.64 294.09,283.88 C293.86,283.12 293.63,281.15 293.59,279.50 C293.47,275.50 291.70,274.81 291.23,278.34 C291.34,277.06 291.48,275.75 291.64,274.64 C291.78,273.61 291.91,272.80 292.07,272.17 C292.29,272.80 293.08,272.58 295.70,271.48 C299.54,269.88 301.89,268.18 298.67,269.34 C297.66,269.70 295.75,270.00 294.42,270.00 C294.14,270.00 293.87,270.02 293.63,270.06 C293.86,270.01 294.10,269.99 294.39,269.98 C298.51,269.95 299.00,268.88 298.02,261.96 C297.81,260.48 297.57,258.74 297.34,257.03 C298.07,262.06 298.43,262.85 299.08,262.45 C299.57,262.15 299.73,262.54 299.43,263.32 C299.13,264.10 299.57,265.00 300.40,265.32 C301.65,265.80 301.86,265.05 301.61,261.11 C301.45,258.47 301.10,255.90 300.85,255.41 C300.60,254.91 300.26,252.93 300.11,251.00 C299.83,247.54 296.42,242.62 294.94,243.54 C294.52,243.80 294.01,243.54 293.82,242.96 C293.63,242.38 292.49,242.83 291.28,243.95 C289.38,245.72 289.15,246.78 289.54,252.00 C289.80,255.59 289.58,258.00 288.99,258.00 C288.45,258.00 288.00,259.89 288.00,262.20 C288.00,267.78 289.21,266.16 290.45,259.57 C290.18,261.18 289.89,262.98 289.55,265.00 C288.72,270.05 287.91,274.89 287.32,278.42 C287.67,275.33 287.35,273.97 286.35,273.58 C285.53,273.26 284.14,273.72 283.26,274.59 C281.91,275.94 281.89,276.32 283.09,277.08 C283.86,277.57 284.92,277.98 285.42,277.98 C285.93,277.99 285.43,279.01 284.30,280.25 C283.18,281.49 282.28,283.20 282.30,284.05 ZM 73.69 314.36 C73.04,314.62 92.37,314.88 116.66,314.92 C160.34,315.00 160.81,314.98 160.29,313.00 C159.80,311.13 159.00,311.01 122.38,311.00 C161.40,311.01 162.00,311.13 162.00,313.00 C162.00,314.97 161.33,315.00 114.03,315.00 L 66.06 315.00 L 66.02 267.76 C66.10,287.91 66.37,303.04 66.69,303.35 C69.22,305.89 69.51,301.39 69.76,255.67 C70.02,208.50 70.00,208.00 68.01,208.00 C66.28,208.00 66.04,208.45 66.01,239.66 L 65.98 196.00 L 434.00 196.00 L 434.00 253.50 C434.00,200.69 433.94,199.00 432.11,199.00 C431.07,199.00 429.95,198.32 429.64,197.50 C429.13,196.17 408.69,196.02 251.29,196.25 C82.90,196.49 73.51,196.59 73.19,198.25 C72.87,199.91 81.84,200.00 249.93,200.00 L 251.43 200.00 C252.13,200.00 252.83,200.00 253.52,200.00 C252.33,200.00 251.13,200.00 249.93,200.00 L 70.31 200.00 C70.26,197.90 69.28,196.00 67.45,196.00 C66.38,196.00 66.00,197.30 66.00,201.04 C66.00,205.65 66.16,205.99 67.88,205.07 C68.93,204.50 69.63,203.45 70.00,202.26 L 70.00 311.00 L 116.00 311.00 C79.75,311.00 73.87,311.21 74.34,312.44 C74.64,313.22 74.35,314.09 73.69,314.36 ZM 173.50 285.00 C172.80,285.30 172.39,285.50 172.29,285.63 C168.75,285.82 164.24,285.94 159.54,285.98 C164.93,285.90 169.19,285.50 169.48,285.03 C170.37,283.60 178.91,280.00 181.42,280.00 C183.51,280.00 183.58,279.66 183.33,270.75 C183.07,261.78 183.30,258.40 181.78,257.15 C180.60,256.19 178.38,256.50 174.07,256.51 C169.36,256.51 165.01,256.83 164.41,257.22 C162.40,258.51 159.20,255.12 158.49,250.95 C157.13,242.90 162.42,237.26 168.42,240.37 L 171.22 241.83 L 165.61 242.53 C160.21,243.20 160.00,243.34 160.00,246.21 C160.00,251.33 164.09,258.24 165.18,254.96 C165.37,254.38 168.89,253.89 173.26,253.84 C178.49,253.78 181.08,253.37 180.96,252.65 C183.37,253.84 185.11,255.53 186.70,257.88 C187.19,258.61 187.63,259.44 188.02,260.36 C187.75,259.80 187.46,259.32 187.14,258.92 C185.41,256.79 185.39,256.82 185.70,261.13 C185.88,263.53 186.04,268.09 186.07,271.25 C186.10,275.49 186.48,277.00 187.51,277.00 C187.92,277.00 188.28,276.78 188.58,276.39 C186.71,280.25 182.80,283.96 179.17,284.97 C178.79,285.08 178.12,285.18 177.22,285.27 C177.35,285.19 177.44,285.10 177.50,285.00 C178.24,283.81 176.28,283.81 173.50,285.00 ZM 194.43 284.25 C194.27,285.36 194.81,285.98 195.96,286.00 C194.12,285.99 192.42,285.93 191.08,285.83 C191.79,285.50 191.90,284.62 191.75,282.50 C191.61,280.58 191.40,279.00 191.28,279.00 C191.24,279.00 191.17,279.07 191.08,279.20 C192.01,277.53 192.53,276.39 192.76,274.68 C192.81,277.12 193.13,278.23 193.80,278.48 C194.63,278.80 194.83,278.53 194.36,277.74 C193.87,276.92 194.19,276.96 195.31,277.87 C196.74,279.04 197.26,279.04 198.69,277.87 C200.00,276.81 200.21,276.80 199.59,277.82 C199.03,278.75 199.34,279.04 200.65,278.82 C201.97,278.59 202.41,279.02 202.19,280.32 C202.02,281.33 202.42,282.80 203.08,283.60 C203.74,284.40 204.41,284.92 204.57,284.77 C204.75,284.58 205.05,283.35 205.39,281.58 L 204.62 286.00 L 196.31 286.00 C196.23,286.00 196.15,286.00 196.07,286.00 C197.28,285.98 197.82,285.32 197.72,283.97 C197.54,281.51 194.80,281.74 194.43,284.25 ZM 316.65 271.92 C318.29,273.49 318.53,273.51 318.75,272.10 C318.89,271.22 317.69,263.08 316.08,254.00 C313.43,239.02 313.17,238.17 313.30,244.75 C313.38,248.74 313.80,252.00 314.24,252.00 C314.68,252.00 314.75,253.24 314.40,254.75 C313.25,259.71 313.59,268.53 314.93,268.23 C315.60,268.07 315.84,268.44 315.47,269.04 C315.10,269.65 315.63,270.94 316.65,271.92 ZM 210.24 280.50 C210.32,284.20 210.77,286.00 211.62,286.00 C213.24,286.00 213.78,285.07 214.47,281.17 C214.82,279.16 214.62,278.00 213.91,278.00 C213.29,278.00 213.05,277.33 213.36,276.50 C213.75,275.49 213.32,275.00 212.04,275.00 C211.23,275.00 210.76,275.17 210.50,275.91 C210.55,275.32 210.61,274.75 210.66,274.25 C210.77,273.23 210.88,272.45 211.02,271.85 C211.22,273.64 212.75,274.11 214.17,272.68 C215.91,270.95 221.22,269.90 222.93,270.96 C223.93,271.57 223.66,271.98 221.88,272.58 C220.57,273.02 218.82,273.41 218.00,273.44 C216.44,273.50 216.32,276.23 217.59,282.75 L 218.23 286.00 L 210.12 286.00 L 210.16 282.25 C210.16,281.59 210.19,280.78 210.23,279.91 C210.24,280.10 210.24,280.30 210.24,280.50 ZM 432.00 306.24 C432.83,307.16 433.61,307.94 433.75,307.96 C433.88,307.96 433.99,284.54 434.00,255.50 L 434.00 315.00 L 386.97 315.00 C430.32,315.00 430.81,314.98 430.29,313.00 C429.78,311.04 428.93,311.00 386.60,311.00 L 429.97 311.00 L 430.23 257.17 C430.24,256.05 430.24,254.93 430.25,253.82 C430.52,301.02 430.85,304.94 432.00,306.24 ZM 326.50 235.82 C326.06,237.55 325.54,239.50 325.00,241.50 C324.24,244.28 323.55,246.90 323.02,248.96 C323.25,247.87 323.47,246.68 323.65,245.64 C324.28,241.87 324.24,241.80 322.03,242.99 C320.78,243.65 320.04,243.74 320.39,243.18 C320.73,242.62 320.31,241.45 319.44,240.58 C318.53,239.67 318.34,239.00 318.99,239.00 C319.61,239.00 319.85,238.56 319.51,238.02 C319.18,237.48 319.36,236.20 319.91,235.17 C320.59,233.89 320.56,232.96 319.79,232.19 C318.96,231.36 319.13,230.89 320.43,230.39 C322.34,229.66 324.28,231.68 323.56,233.65 C323.33,234.29 323.73,235.62 324.46,236.62 C325.50,238.03 325.80,238.10 326.50,235.82 ZM 322.30 253.52 C322.94,253.80 324.59,254.00 326.50,254.00 C328.35,254.00 329.55,253.93 330.21,254.48 C331.46,255.51 330.91,258.70 329.49,268.50 C329.15,270.86 328.83,273.20 328.58,275.19 C328.80,272.90 329.16,270.17 329.63,267.42 C330.03,265.08 329.79,264.33 328.62,264.33 C327.78,264.33 327.32,264.71 327.60,265.17 C327.89,265.62 327.59,266.00 326.95,266.00 C326.31,266.00 326.05,266.67 326.36,267.50 C327.22,269.74 326.24,269.31 324.94,266.88 C324.14,265.39 324.13,264.96 324.90,265.44 C325.51,265.81 326.00,265.67 326.00,265.12 C326.00,264.57 325.56,263.85 325.02,263.51 C323.65,262.66 326.17,258.85 327.72,259.44 C328.39,259.70 329.21,259.47 329.54,258.93 C329.88,258.39 329.78,258.01 329.32,258.09 C327.30,258.45 325.93,257.92 326.50,257.00 C326.84,256.45 326.53,255.99 325.81,255.98 C324.86,255.97 324.91,255.70 326.00,255.00 C327.16,254.25 326.85,254.03 324.63,254.02 C323.28,254.01 322.57,253.92 322.30,253.52 ZM 330.73 279.39 C331.06,279.73 331.55,280.00 331.81,280.00 C332.86,280.00 334.94,276.37 334.97,274.47 C335.01,271.59 338.27,269.01 340.38,270.19 C341.78,270.98 342.01,270.66 341.82,268.17 C341.65,266.04 341.18,265.38 340.13,265.78 C339.15,266.16 338.92,265.93 339.44,265.10 C340.05,264.11 339.81,264.10 338.24,265.08 C336.07,266.44 329.77,278.44 330.73,279.39 ZM 343.27 313.00 C343.13,314.96 343.73,315.00 386.06,315.00 C338.74,315.00 338.13,314.97 338.27,313.00 C338.42,311.03 339.14,311.00 384.20,311.00 C344.12,311.00 343.42,311.07 343.27,313.00 ZM 215.02 250.25 C215.01,251.76 215.45,253.00 216.00,253.00 C217.26,253.00 217.26,250.96 216.00,249.00 C215.24,247.83 215.03,248.11 215.02,250.25 ZM 349.00 244.00 C349.00,244.55 348.52,245.00 347.94,245.00 C347.36,245.00 347.16,244.55 347.50,244.00 C347.84,243.45 348.32,243.00 348.56,243.00 C348.80,243.00 349.00,243.45 349.00,244.00 ZM 346.60 245.43 C345.97,245.18 344.59,245.00 343.00,245.00 C342.17,245.00 341.40,244.96 340.75,244.91 C341.21,244.90 341.78,244.88 342.46,244.83 C344.37,244.70 346.20,244.87 346.53,245.20 C346.57,245.24 346.60,245.32 346.60,245.43 ZM 141.85 234.61 C143.04,232.87 144.47,231.46 146.08,230.52 C146.34,230.37 146.60,230.23 146.86,230.10 C145.00,231.34 143.15,232.98 141.85,234.61 ZM 268.03 280.81 C268.18,279.91 268.35,278.93 268.50,278.00 C268.68,276.89 268.90,275.79 269.12,274.85 C269.10,275.77 268.94,277.00 268.67,278.00 C268.48,278.75 268.24,279.78 268.03,280.81 ZM 325.23 284.88 C325.17,284.12 324.67,281.70 324.11,279.50 C324.67,281.70 325.17,284.06 325.23,284.75 C325.29,285.46 326.79,285.83 330.26,285.96 C326.41,286.01 325.29,285.70 325.23,284.88 ZM 189.53 244.43 L 189.50 245.50 L 188.22 245.47 C188.76,245.22 189.24,244.86 189.53,244.43 ZM 293.41 246.36 C292.73,247.10 292.20,249.31 291.06,255.97 C292.08,249.45 292.57,247.14 293.41,246.36 ZM 138.08 247.29 C138.11,246.76 138.15,246.20 138.20,245.61 C138.39,243.35 138.85,241.21 139.54,239.25 C138.79,241.65 138.27,244.58 138.08,247.29 ZM 430.01 201.44 C429.61,201.16 428.41,200.93 425.28,200.75 C428.60,200.89 430.00,201.05 430.01,201.25 C430.01,201.31 430.01,201.38 430.01,201.44 ZM 189.26 264.30 C189.88,267.10 190.06,270.13 189.69,272.77 C189.97,270.29 189.82,267.10 189.26,264.30 ZM 356.27 277.75 C354.74,279.29 352.88,280.74 350.95,281.89 C352.82,280.67 354.78,279.17 356.27,277.75 ZM 163.72 250.03 C167.61,250.09 170.81,250.27 173.48,250.62 C170.42,250.32 166.73,250.08 163.72,250.03 ZM 327.04 228.44 C327.69,228.63 328.00,228.90 327.99,229.25 C327.99,229.37 327.95,229.65 327.87,230.05 C327.90,229.22 327.65,228.73 327.04,228.44 ZM 142.52 259.58 C142.50,259.57 142.48,259.55 142.47,259.53 C141.03,258.09 139.99,256.81 139.29,255.43 C140.07,256.76 141.24,258.25 142.52,259.58 ZM 188.01 285.25 C188.02,284.96 188.62,283.67 189.48,282.05 C188.80,283.39 188.16,284.78 188.03,285.30 C188.02,285.28 188.01,285.27 188.01,285.25 ZM 339.41 244.69 C339.15,244.62 339.00,244.54 339.00,244.45 C339.00,244.40 339.05,244.27 339.14,244.07 C339.11,244.36 339.19,244.56 339.41,244.69 ZM 267.44 284.25 C267.45,284.22 267.45,284.19 267.46,284.15 C267.43,284.51 267.43,284.79 267.46,285.03 C267.37,284.82 267.38,284.56 267.44,284.25 ZM 212.05 270.23 C212.39,270.07 212.82,270.01 213.38,270.00 C212.87,270.01 212.42,270.09 212.05,270.23 ZM 214.30 269.94 C214.58,269.89 214.85,269.82 215.10,269.72 C214.85,269.82 214.59,269.89 214.30,269.94 Z" fill="rgba(254,254,254,1)"/>
<path d="M 325.23 284.75 C325.17,284.06 324.67,281.70 324.11,279.50 C323.56,277.30 322.91,273.41 322.68,270.86 C322.44,268.30 321.99,265.80 321.68,265.30 C321.37,264.79 321.01,261.80 320.89,258.64 C320.76,255.49 320.28,252.67 319.82,252.39 C319.36,252.10 319.18,250.78 319.43,249.44 C319.67,248.10 319.54,247.00 319.15,247.00 C318.75,247.00 318.35,246.21 318.25,245.25 C318.15,244.29 317.45,240.01 316.68,235.75 L 315.29 228.00 L 321.64 228.00 C328.63,228.00 328.67,228.05 326.89,234.46 C325.88,238.08 325.67,238.27 324.46,236.62 C323.73,235.62 323.33,234.29 323.56,233.65 C324.28,231.68 322.34,229.66 320.43,230.39 C319.13,230.89 318.96,231.36 319.79,232.19 C320.56,232.96 320.59,233.89 319.91,235.17 C319.36,236.20 319.18,237.48 319.51,238.02 C319.85,238.56 319.61,239.00 318.99,239.00 C318.34,239.00 318.53,239.67 319.44,240.58 C320.31,241.45 320.73,242.62 320.39,243.18 C320.04,243.74 320.78,243.65 322.03,242.99 C324.24,241.80 324.28,241.87 323.65,245.64 C323.29,247.76 322.72,250.51 322.38,251.75 C321.85,253.70 322.15,254.00 324.63,254.02 C326.85,254.03 327.16,254.25 326.00,255.00 C324.91,255.70 324.86,255.97 325.81,255.98 C326.53,255.99 326.84,256.45 326.50,257.00 C325.93,257.92 327.30,258.45 329.32,258.09 C329.78,258.01 329.88,258.39 329.54,258.93 C329.21,259.47 328.39,259.70 327.72,259.44 C326.17,258.85 323.65,262.66 325.02,263.51 C325.56,263.85 326.00,264.57 326.00,265.12 C326.00,265.67 325.51,265.81 324.90,265.44 C324.13,264.96 324.14,265.39 324.94,266.88 C326.24,269.31 327.22,269.74 326.36,267.50 C326.05,266.67 326.31,266.00 326.95,266.00 C327.59,266.00 327.89,265.62 327.60,265.17 C327.32,264.71 327.78,264.33 328.62,264.33 C329.79,264.33 330.03,265.08 329.63,267.42 C328.33,275.06 327.90,282.45 328.84,281.10 C329.63,279.95 330.27,280.19 332.30,282.38 C334.14,284.36 335.49,284.95 337.38,284.61 C338.80,284.35 340.23,284.56 340.54,285.07 C340.88,285.61 337.84,286.00 333.23,286.00 C327.63,286.00 325.30,285.64 325.23,284.75 ZM 203.08 283.60 C202.42,282.80 202.02,281.33 202.19,280.32 C202.41,279.02 201.97,278.59 200.65,278.82 C199.34,279.04 199.03,278.75 199.59,277.82 C200.21,276.80 200.00,276.81 198.69,277.87 C197.26,279.04 196.74,279.04 195.31,277.87 C194.19,276.96 193.87,276.92 194.36,277.74 C194.83,278.53 194.63,278.80 193.80,278.48 C192.86,278.12 192.59,276.05 192.84,270.91 C193.15,264.26 193.27,263.94 194.92,265.42 C195.88,266.29 196.89,266.78 197.16,266.50 C197.44,266.23 197.68,266.56 197.71,267.25 C197.73,267.94 197.86,268.95 197.99,269.50 C198.53,271.67 197.93,272.91 196.60,272.40 C195.83,272.11 194.86,272.46 194.44,273.18 C194.02,273.91 194.03,274.18 194.46,273.80 C194.89,273.41 195.91,273.76 196.72,274.58 C197.95,275.80 198.49,275.84 199.80,274.78 C200.74,274.02 201.10,273.97 200.70,274.65 C200.32,275.28 200.61,276.02 201.33,276.30 C202.33,276.68 202.64,275.49 202.61,271.44 C202.57,266.16 202.53,266.11 200.53,267.79 C198.53,269.48 198.52,269.47 200.31,267.36 C202.49,264.77 206.69,263.74 207.41,265.61 C207.85,266.78 205.29,284.04 204.57,284.77 C204.41,284.92 203.74,284.40 203.08,283.60 ZM 288.00 262.20 C288.00,259.89 288.45,258.00 288.99,258.00 C289.58,258.00 289.80,255.59 289.54,252.00 C289.15,246.78 289.38,245.72 291.28,243.95 C292.49,242.83 293.63,242.38 293.82,242.96 C294.01,243.54 294.52,243.80 294.94,243.54 C296.42,242.62 299.83,247.54 300.11,251.00 C300.26,252.93 300.60,254.91 300.85,255.41 C301.10,255.90 301.45,258.47 301.61,261.11 C301.86,265.05 301.65,265.80 300.40,265.32 C299.57,265.00 299.13,264.10 299.43,263.32 C299.73,262.54 299.57,262.15 299.08,262.45 C298.22,262.98 297.87,261.43 296.49,250.75 C296.11,247.77 295.38,246.00 294.55,246.00 C292.81,246.00 292.45,247.08 290.97,256.56 C289.56,265.58 288.00,268.55 288.00,262.20 ZM 168.90 240.62 C170.52,241.39 172.81,241.99 174.19,241.99 C175.67,242.00 177.14,242.42 177.46,242.94 C177.47,242.96 177.48,242.97 177.50,242.99 C177.25,242.90 177.02,242.78 176.80,242.65 C175.86,242.05 174.75,241.92 174.33,242.34 C173.90,242.76 174.22,243.53 175.03,244.04 C176.03,244.67 174.41,244.98 170.00,245.00 C166.43,245.02 162.87,245.43 162.10,245.91 C160.28,247.07 161.43,249.99 163.72,250.03 C169.48,250.12 177.75,250.91 179.25,251.51 C182.84,252.95 180.77,253.75 173.26,253.84 C168.89,253.89 165.37,254.38 165.18,254.96 C164.09,258.24 160.00,251.33 160.00,246.21 C160.00,243.34 160.21,243.20 165.61,242.53 L 171.22 241.83 L 168.90 240.62 ZM 146.50 262.83 C143.34,261.08 139.07,256.12 138.38,253.40 C137.35,249.26 138.51,240.56 140.66,236.41 C142.59,232.67 148.77,228.05 151.90,228.02 C154.35,227.99 150.12,231.81 146.94,232.51 C143.84,233.19 142.65,235.37 142.15,241.31 C142.06,242.40 141.54,242.84 140.85,242.40 C140.12,241.95 139.96,242.13 140.43,242.89 C140.84,243.55 140.60,244.78 139.90,245.62 C138.86,246.87 138.89,247.32 140.06,248.06 C141.30,248.84 141.29,248.97 140.00,249.00 C138.73,249.03 138.72,249.17 139.91,249.92 C141.16,250.71 141.62,252.29 141.92,256.75 C141.96,257.44 142.70,258.00 143.56,258.00 C144.42,258.00 144.84,258.45 144.50,259.00 C144.16,259.55 144.58,260.00 145.44,260.00 C146.30,260.00 147.00,259.65 147.00,259.21 C147.00,258.78 147.88,258.43 148.95,258.43 C150.03,258.43 150.70,258.63 150.45,258.88 C150.20,259.14 150.68,260.39 151.52,261.67 C152.96,263.88 152.92,264.00 150.77,263.97 C149.52,263.95 147.60,263.44 146.50,262.83 ZM 316.65 271.92 C315.63,270.94 315.10,269.65 315.47,269.04 C315.84,268.44 315.60,268.07 314.93,268.23 C313.59,268.53 313.25,259.71 314.40,254.75 C314.75,253.24 314.68,252.00 314.24,252.00 C313.80,252.00 313.38,248.74 313.30,244.75 C313.17,238.17 313.43,239.02 316.08,254.00 C317.69,263.08 318.89,271.22 318.75,272.10 C318.53,273.51 318.29,273.49 316.65,271.92 ZM 348.74 239.92 C347.78,239.35 346.63,239.11 346.19,239.38 C345.76,239.65 344.83,238.95 344.13,237.83 C343.14,236.25 343.13,235.96 344.10,236.56 C344.95,237.09 345.15,236.84 344.74,235.76 C343.81,233.35 344.97,232.94 348.13,234.57 C351.53,236.33 351.67,236.08 349.00,233.00 C346.35,229.95 346.46,228.65 349.25,230.08 C352.58,231.79 358.00,237.19 357.39,238.17 C357.10,238.65 356.42,238.76 355.87,238.42 C354.41,237.52 349.82,238.90 350.52,240.03 C351.26,241.23 350.97,241.21 348.74,239.92 ZM 230.55 234.24 C229.80,230.83 230.17,230.93 218.00,230.51 C212.77,230.32 207.71,230.13 206.75,230.09 C205.79,230.04 205.00,229.55 205.00,229.00 C205.00,228.39 209.96,228.00 217.87,228.00 L 230.74 228.00 L 231.30 232.23 C231.97,237.16 231.48,238.46 230.55,234.24 ZM 193.32 245.33 C193.60,244.32 194.11,241.25 194.45,238.50 C195.30,231.71 195.57,229.31 196.85,228.49 C197.59,228.03 198.65,228.09 200.33,228.15 C203.32,228.26 203.72,228.42 201.75,228.72 C198.59,229.20 197.20,232.64 198.89,235.80 C199.71,237.33 199.60,238.08 198.44,239.05 C197.52,239.81 197.03,241.55 197.21,243.41 C197.45,245.99 197.12,246.55 195.16,246.83 C193.30,247.10 192.92,246.79 193.32,245.33 ZM 344.60 250.81 C345.99,248.05 346.86,245.53 346.53,245.20 C346.20,244.87 344.37,244.70 342.46,244.83 C338.69,245.08 338.48,244.83 340.05,241.91 C341.14,239.86 343.48,240.30 342.68,242.40 C342.39,243.14 343.21,243.57 344.86,243.53 C346.73,243.49 347.46,242.96 347.36,241.73 C347.18,239.44 347.69,239.54 349.03,242.06 C349.85,243.60 349.83,244.50 348.95,245.56 C348.02,246.68 348.03,247.00 349.00,247.00 C349.99,247.00 349.99,247.30 349.00,248.49 C348.32,249.32 347.99,250.85 348.27,251.91 C348.74,253.73 347.87,254.37 343.28,255.51 C342.57,255.69 343.12,253.72 344.60,250.81 ZM 138.00 277.50 C138.00,270.07 138.22,269.00 139.75,269.00 C141.26,269.00 141.45,269.82 141.16,275.00 C140.92,279.33 141.17,281.00 142.08,281.00 C142.77,281.00 143.05,281.28 142.70,281.63 C142.35,281.98 142.52,283.10 143.07,284.13 C143.94,285.77 143.69,286.00 141.04,286.00 L 138.00 286.00 ZM 186.07 271.25 C186.04,268.09 185.88,263.53 185.70,261.13 C185.39,256.82 185.41,256.79 187.14,258.92 C190.51,263.09 190.80,277.00 187.51,277.00 C186.48,277.00 186.10,275.49 186.07,271.25 ZM 205.39 315.57 C204.48,313.20 205.39,309.77 207.25,308.61 C210.88,306.33 214.80,312.13 211.95,315.56 C210.41,317.41 206.10,317.43 205.39,315.57 ZM 262.78 314.42 C261.95,312.59 261.91,311.36 262.66,310.17 C264.93,306.57 270.00,308.13 270.00,312.42 C270.00,317.22 264.72,318.68 262.78,314.42 ZM 330.73 279.39 C329.77,278.44 336.07,266.44 338.24,265.08 C339.81,264.10 340.05,264.11 339.44,265.10 C338.92,265.93 339.15,266.16 340.13,265.78 C341.18,265.38 341.65,266.04 341.82,268.17 C342.01,270.66 341.78,270.98 340.38,270.19 C338.27,269.01 335.01,271.59 334.97,274.47 C334.94,276.37 332.86,280.00 331.81,280.00 C331.55,280.00 331.06,279.73 330.73,279.39 ZM 301.99 315.49 C301.03,314.33 300.92,313.13 301.60,311.19 C302.34,309.08 303.19,308.50 305.52,308.50 C308.33,308.50 308.50,308.73 308.50,312.50 C308.50,316.06 308.21,316.53 305.91,316.80 C304.44,316.97 302.75,316.41 301.99,315.49 ZM 147.07 270.58 C145.89,269.16 146.52,269.00 153.13,268.99 C162.63,268.97 165.30,268.26 164.69,265.94 C164.39,264.79 164.68,264.32 165.49,264.63 C166.18,264.90 166.75,266.21 166.75,267.54 C166.75,269.48 166.13,270.05 163.62,270.42 C161.91,270.68 159.82,270.88 159.00,270.87 C158.18,270.86 155.45,271.15 152.94,271.51 C149.42,272.01 148.08,271.80 147.07,270.58 ZM 273.42 252.63 C273.75,251.46 274.30,247.90 274.65,244.72 C275.40,237.98 276.39,236.81 277.85,240.99 C278.65,243.31 278.57,244.29 277.45,245.41 C276.35,246.50 276.31,246.96 277.26,247.34 C278.20,247.72 278.19,247.86 277.19,247.92 C276.40,247.97 276.19,248.50 276.66,249.25 C278.39,252.01 277.94,253.78 275.39,254.27 C273.17,254.69 272.91,254.47 273.42,252.63 ZM 235.45 270.58 C233.77,269.36 233.51,267.89 233.48,259.61 C233.47,254.36 233.75,250.38 234.12,250.78 C234.65,251.37 237.96,272.00 237.51,272.00 C237.44,272.00 236.51,271.36 235.45,270.58 ZM 224.67 269.47 C224.54,269.80 224.30,270.00 223.94,270.00 C223.36,270.00 223.14,270.42 223.46,270.93 C223.55,271.08 223.54,271.24 223.45,271.42 C223.37,271.27 223.20,271.12 222.93,270.96 C221.22,269.90 215.91,270.95 214.17,272.68 C212.65,274.21 211.00,273.57 211.00,271.44 C211.00,270.57 211.99,270.00 213.53,270.00 C215.06,270.00 216.29,269.31 216.63,268.25 C216.94,267.29 217.38,265.89 217.61,265.14 C218.21,263.15 222.60,266.26 222.21,268.40 C222.04,269.30 222.58,270.00 223.46,270.00 C223.95,270.00 224.39,269.79 224.67,269.47 ZM 282.30 284.05 C282.28,283.20 283.18,281.49 284.30,280.25 C285.43,279.01 285.93,277.99 285.42,277.98 C284.92,277.98 283.86,277.57 283.09,277.08 C281.89,276.32 281.91,275.94 283.26,274.59 C284.14,273.72 285.53,273.26 286.35,273.58 C287.80,274.14 287.82,276.75 286.43,283.69 C285.93,286.20 282.36,286.51 282.30,284.05 ZM 276.45 234.12 C276.75,232.27 277.00,230.13 277.00,229.38 C277.00,228.29 279.23,228.03 287.75,228.13 C298.22,228.26 298.35,228.29 292.50,229.19 C289.20,229.70 284.92,230.23 283.00,230.37 C280.14,230.57 279.17,231.25 277.70,234.06 L 275.91 237.50 ZM 221.00 312.43 C221.00,308.04 221.11,307.88 223.75,308.18 C226.06,308.45 226.51,308.98 226.54,311.50 C226.56,313.15 226.92,315.06 227.35,315.75 C228.72,317.98 226.29,317.07 224.67,314.75 L 223.10 312.50 L 223.05 314.75 C222.95,319.13 221.00,316.93 221.00,312.43 ZM 345.00 284.08 C345.00,282.98 346.87,281.65 348.83,281.36 C351.82,280.90 352.75,280.02 353.33,277.09 C353.67,275.39 354.55,274.00 355.29,274.00 C356.02,274.00 357.61,273.08 358.81,271.96 C361.92,269.07 361.52,270.98 358.01,275.83 C355.16,279.76 345.00,286.20 345.00,284.08 ZM 210.24 280.50 C210.15,275.72 210.38,275.00 212.04,275.00 C213.32,275.00 213.75,275.49 213.36,276.50 C213.05,277.33 213.29,278.00 213.91,278.00 C214.62,278.00 214.82,279.16 214.47,281.17 C213.78,285.07 213.24,286.00 211.62,286.00 C210.77,286.00 210.32,284.20 210.24,280.50 ZM 191.75 316.42 C191.34,316.01 191.00,313.91 191.00,311.77 C191.00,308.10 191.17,307.89 193.75,308.18 C197.26,308.59 198.33,312.84 195.13,313.68 C194.02,313.97 192.97,314.87 192.80,315.69 C192.64,316.51 192.16,316.84 191.75,316.42 ZM 66.00 201.04 C66.00,197.30 66.38,196.00 67.45,196.00 C71.01,196.00 71.35,203.20 67.88,205.07 C66.16,205.99 66.00,205.65 66.00,201.04 ZM 208.68 252.35 C207.69,251.36 207.87,246.75 208.98,245.00 C210.29,242.91 213.75,242.92 214.29,245.01 C214.59,246.15 214.19,246.69 213.12,246.62 C212.11,246.54 211.38,247.43 211.17,249.00 C210.78,251.86 209.68,253.35 208.68,252.35 ZM 187.76 233.87 C186.80,231.87 185.00,229.89 183.76,229.46 C181.81,228.79 182.04,228.62 185.35,228.27 C187.47,228.05 189.41,228.08 189.66,228.33 C189.92,228.58 189.98,230.75 189.81,233.15 L 189.50 237.50 ZM 267.58 283.25 C267.82,281.74 268.31,279.38 268.67,278.00 C269.03,276.62 269.21,274.83 269.07,274.00 C268.93,273.17 269.11,272.80 269.48,273.16 C270.50,274.16 270.85,279.02 269.86,278.41 C269.39,278.12 269.00,278.36 269.00,278.94 C269.00,279.52 269.40,280.00 269.89,280.00 C270.37,280.00 270.97,281.35 271.21,283.00 C271.59,285.58 271.34,286.00 269.39,286.00 C267.49,286.00 267.20,285.57 267.58,283.25 ZM 249.15 312.50 C249.29,308.92 249.69,308.00 251.10,308.00 C252.08,308.00 253.16,308.45 253.50,309.00 C253.84,309.55 253.42,310.00 252.56,310.00 C250.44,310.00 250.58,311.74 252.75,312.31 C254.42,312.75 254.42,312.77 252.75,312.88 C251.71,312.95 251.00,313.81 251.00,315.00 C251.00,316.10 250.55,317.00 249.99,317.00 C249.44,317.00 249.06,314.98 249.15,312.50 ZM 291.44 284.90 C290.96,284.13 291.11,283.95 291.85,284.40 C292.53,284.83 293.00,284.48 293.00,283.56 C293.00,282.70 292.52,282.00 291.94,282.00 C291.34,282.00 291.01,280.58 291.19,278.75 C291.57,274.76 293.47,275.36 293.59,279.50 C293.63,281.15 293.86,283.12 294.09,283.88 C294.62,285.64 292.42,286.49 291.44,284.90 ZM 307.43 311.68 C307.08,310.75 306.15,310.00 305.36,310.00 C303.33,310.00 302.55,312.75 304.05,314.56 C305.13,315.87 305.54,315.89 306.70,314.73 C307.46,313.97 307.78,312.60 307.43,311.68 ZM 268.00 312.50 C268.00,310.67 267.47,310.00 266.00,310.00 C264.53,310.00 264.00,310.67 264.00,312.50 C264.00,314.33 264.53,315.00 266.00,315.00 C267.47,315.00 268.00,314.33 268.00,312.50 ZM 211.00 312.50 C211.00,310.67 210.47,310.00 209.00,310.00 C207.53,310.00 207.00,310.67 207.00,312.50 C207.00,314.33 207.53,315.00 209.00,315.00 C210.47,315.00 211.00,314.33 211.00,312.50 ZM 237.00 313.86 C237.00,312.04 236.26,310.16 235.25,309.39 C233.69,308.21 233.92,308.06 237.25,308.03 C239.31,308.01 241.00,308.45 241.00,309.00 C241.00,309.55 240.55,310.00 240.00,310.00 C239.45,310.00 239.00,311.58 239.00,313.50 C239.00,313.59 239.00,313.68 239.00,313.77 C238.96,312.23 238.52,311.00 238.00,311.00 C237.46,311.00 237.01,312.31 237.00,313.93 C237.00,313.91 237.00,313.88 237.00,313.86 ZM 235.30 278.27 C234.40,277.97 234.38,277.27 235.21,275.44 C236.07,273.56 236.62,273.27 237.66,274.13 C240.57,276.55 238.90,279.47 235.30,278.27 ZM 188.00 285.45 C188.00,284.80 190.95,279.00 191.28,279.00 C191.40,279.00 191.61,280.58 191.75,282.50 C191.96,285.42 191.67,286.00 190.00,286.00 C188.90,286.00 188.00,285.75 188.00,285.45 ZM 302.50 229.00 C302.12,228.38 303.82,228.00 306.94,228.00 C309.72,228.00 312.00,228.45 312.00,229.00 C312.00,229.55 310.00,230.00 307.56,230.00 C305.12,230.00 302.84,229.55 302.50,229.00 ZM 184.53 245.05 C184.17,244.46 184.58,243.76 185.44,243.49 C186.30,243.22 187.71,242.78 188.57,242.50 C189.66,242.16 190.04,242.55 189.81,243.75 C189.44,245.72 185.54,246.68 184.53,245.05 ZM 278.75 315.25 C277.83,313.36 277.96,308.00 278.92,308.00 C279.52,308.00 280.00,309.80 280.00,312.00 C280.00,315.79 279.57,316.92 278.75,315.25 ZM 292.00 271.51 C292.00,270.58 292.93,270.00 294.42,270.00 C295.75,270.00 297.66,269.70 298.67,269.34 C301.89,268.18 299.54,269.88 295.70,271.48 C292.41,272.86 292.00,272.86 292.00,271.51 ZM 291.00 314.00 C291.00,312.35 291.45,311.00 292.00,311.00 C292.55,311.00 293.00,312.35 293.00,314.00 C293.00,315.65 292.55,317.00 292.00,317.00 C291.45,317.00 291.00,315.65 291.00,314.00 ZM 360.02 267.31 C360.02,266.31 360.47,264.83 361.00,264.00 C361.76,262.83 361.97,263.09 361.98,265.19 C361.99,266.67 361.55,268.16 361.00,268.50 C360.45,268.84 360.01,268.30 360.02,267.31 ZM 215.02 250.25 C215.03,248.11 215.24,247.83 216.00,249.00 C217.26,250.96 217.26,253.00 216.00,253.00 C215.45,253.00 215.01,251.76 215.02,250.25 ZM 173.50 285.00 C176.28,283.81 178.24,283.81 177.50,285.00 C177.16,285.55 175.67,285.97 174.19,285.93 C171.79,285.87 171.71,285.77 173.50,285.00 ZM 208.02 257.25 C208.02,256.84 208.47,255.82 209.00,255.00 C209.78,253.79 209.97,253.93 209.98,255.75 C209.99,256.99 209.55,258.00 209.00,258.00 C208.45,258.00 208.01,257.66 208.02,257.25 ZM 216.00 259.00 C216.00,257.13 216.27,256.87 217.20,257.80 C218.13,258.73 218.13,259.27 217.20,260.20 C216.27,261.13 216.00,260.87 216.00,259.00 ZM 195.00 311.00 C195.00,310.45 194.55,310.00 194.00,310.00 C193.45,310.00 193.00,310.45 193.00,311.00 C193.00,311.55 193.45,312.00 194.00,312.00 C194.55,312.00 195.00,311.55 195.00,311.00 ZM 225.00 311.00 C225.00,310.45 224.55,310.00 224.00,310.00 C223.45,310.00 223.00,310.45 223.00,311.00 C223.00,311.55 223.45,312.00 224.00,312.00 C224.55,312.00 225.00,311.55 225.00,311.00 ZM 349.00 244.00 C349.00,243.45 348.80,243.00 348.56,243.00 C348.32,243.00 347.84,243.45 347.50,244.00 C347.16,244.55 347.36,245.00 347.94,245.00 C348.52,245.00 349.00,244.55 349.00,244.00 ZM 221.50 262.00 C222.68,262.48 223.79,264.38 224.37,266.20 C223.61,264.35 222.34,262.34 221.50,262.00 ZM 221.48 272.71 C220.46,273.10 219.20,273.39 218.00,273.44 C218.74,273.41 220.24,273.09 221.48,272.71 ZM 158.49 250.95 C157.69,246.21 159.15,242.35 161.72,240.58 C159.17,242.37 157.70,246.25 158.49,250.95 ZM 183.51 240.29 C183.08,239.78 182.14,239.32 181.17,239.18 C182.44,239.37 183.22,239.78 183.51,240.29 ZM 181.03 242.84 C181.88,242.53 182.69,242.11 183.19,241.67 C182.81,242.06 182.18,242.44 181.30,242.75 C181.21,242.78 181.12,242.81 181.03,242.84 Z" fill="rgba(252,252,252,1)"/>
<path d="M 432.00 306.24 C430.52,304.57 430.40,298.53 430.01,201.25 C430.00,200.25 393.62,200.00 251.43,200.00 C81.90,200.00 72.87,199.91 73.19,198.25 C73.51,196.59 82.90,196.49 251.29,196.25 C408.69,196.02 429.13,196.17 429.64,197.50 C429.95,198.32 431.07,199.00 432.11,199.00 C433.94,199.00 434.00,200.69 434.00,253.50 C434.00,283.46 433.89,307.96 433.75,307.96 C433.61,307.94 432.83,307.16 432.00,306.24 ZM 146.38 284.44 C146.74,283.50 145.99,281.97 144.49,280.58 C142.16,278.42 140.78,272.13 142.93,273.46 C143.44,273.77 144.15,273.57 144.49,273.01 C144.91,272.34 145.74,272.33 146.93,272.96 C147.92,273.49 148.98,273.69 149.27,273.40 C149.57,273.10 153.47,272.84 157.95,272.81 C166.86,272.76 169.28,271.57 168.74,267.52 C168.20,263.51 166.22,261.94 163.35,263.25 C161.46,264.11 160.39,264.10 158.94,263.19 C157.89,262.54 156.36,262.00 155.55,262.00 C154.74,262.00 153.59,261.10 153.00,260.00 C152.41,258.90 152.26,258.00 152.66,258.00 C154.77,258.00 150.56,255.54 148.23,255.41 C146.01,255.29 145.02,255.24 144.58,254.73 C144.22,254.31 144.22,253.58 144.21,252.25 C144.20,250.74 144.18,248.60 144.16,247.50 C144.04,236.35 144.26,235.67 148.92,233.10 C152.93,230.89 154.71,230.63 168.04,230.31 L 182.74 229.95 L 184.41 232.50 C186.48,235.67 185.75,237.00 181.94,237.00 C178.54,237.00 177.94,238.71 181.17,239.18 C182.37,239.36 183.51,240.01 183.72,240.64 C184.19,242.07 178.27,244.25 177.46,242.94 C177.14,242.42 175.67,242.00 174.19,241.99 C172.71,241.99 170.18,241.30 168.56,240.45 C162.43,237.26 157.11,242.80 158.49,250.95 C159.20,255.12 162.40,258.51 164.41,257.22 C165.01,256.83 169.36,256.51 174.07,256.51 C178.38,256.50 180.60,256.19 181.78,257.15 C183.30,258.40 183.07,261.78 183.33,270.75 C183.58,279.66 183.51,280.00 181.42,280.00 C178.91,280.00 170.37,283.60 169.48,285.03 C169.15,285.57 163.73,286.00 157.33,286.00 C147.29,286.00 145.86,285.80 146.38,284.44 ZM 274.25 284.25 C274.47,283.29 274.13,281.38 273.50,280.00 C272.86,278.62 272.53,275.92 272.76,274.00 C272.99,272.08 273.28,267.58 273.42,264.00 C273.55,260.42 274.07,257.48 274.58,257.45 C279.34,257.20 281.24,254.64 280.58,249.41 C280.36,247.71 280.55,245.74 280.99,245.02 C281.43,244.31 281.18,242.29 280.44,240.52 C278.49,235.85 279.54,232.93 283.06,233.20 C284.65,233.32 286.76,232.62 287.90,231.59 C289.56,230.09 291.17,229.84 297.01,230.17 C301.55,230.43 304.42,231.06 304.96,231.93 C305.42,232.68 306.68,233.06 307.76,232.77 C310.65,232.02 313.41,233.80 311.99,235.51 C311.25,236.41 311.01,241.27 311.29,250.18 C311.51,257.50 311.35,264.74 310.92,266.25 C310.49,267.76 310.48,269.00 310.90,269.00 C311.32,269.00 312.26,270.12 312.99,271.48 C313.72,272.85 315.15,274.23 316.16,274.55 C317.17,274.87 318.00,275.78 318.00,276.57 C318.00,277.36 318.38,278.00 318.83,278.00 C319.29,278.00 319.67,278.67 319.67,279.50 C319.67,280.33 319.11,281.00 318.42,281.00 C317.09,281.00 317.06,282.70 318.34,284.75 C318.94,285.72 316.86,286.00 309.09,286.00 C299.73,286.00 298.99,285.85 297.86,283.75 C297.19,282.51 296.58,279.82 296.49,277.76 C296.35,274.03 297.16,273.21 301.84,272.39 C304.25,271.96 304.50,270.94 304.35,262.17 C304.09,246.42 304.29,247.36 301.00,246.00 C299.35,245.32 298.00,244.37 298.00,243.90 C298.00,242.60 292.57,240.08 290.15,240.26 C288.15,240.41 287.54,241.26 287.92,243.36 C288.00,243.83 287.66,244.73 287.16,245.36 C286.66,245.98 286.47,247.40 286.73,248.50 C287.29,250.87 287.27,256.93 286.70,262.50 C286.47,264.70 286.22,267.81 286.14,269.42 C286.06,271.02 285.74,272.07 285.41,271.75 C285.09,271.43 283.50,271.63 281.87,272.19 C279.28,273.10 278.97,273.60 279.40,276.32 C279.67,278.03 279.41,280.00 278.82,280.71 C278.24,281.42 278.15,282.01 278.63,282.02 C279.11,282.02 278.83,282.47 278.00,283.00 C276.91,283.70 276.86,283.97 277.81,283.98 C278.53,283.99 278.84,284.45 278.50,285.00 C278.16,285.55 276.98,286.00 275.87,286.00 C274.46,286.00 273.97,285.47 274.25,284.25 ZM 217.59 282.75 C216.32,276.23 216.44,273.50 218.00,273.44 C220.83,273.33 224.03,271.86 223.46,270.93 C223.14,270.42 223.36,270.00 223.94,270.00 C226.07,270.00 223.93,263.00 221.50,262.00 C220.01,261.38 218.03,255.01 218.02,250.75 C218.01,248.69 217.52,247.00 216.93,247.00 C216.33,247.00 216.13,246.15 216.48,245.06 C217.26,242.59 213.02,239.54 210.10,240.47 C207.50,241.29 207.12,242.76 206.78,253.26 C206.53,260.99 206.26,262.10 204.50,262.70 C201.31,263.79 199.68,263.65 196.75,262.06 C194.66,260.93 193.97,259.78 193.89,257.28 C193.83,255.48 193.73,253.03 193.67,251.84 C193.60,250.47 194.22,249.59 195.37,249.42 C198.43,248.97 200.87,246.03 200.56,243.17 C200.41,241.71 200.62,239.32 201.04,237.86 C201.51,236.21 201.36,234.73 200.65,233.95 C199.77,233.00 199.80,232.87 200.75,233.41 C201.44,233.80 202.00,233.66 202.00,233.11 C202.00,232.53 204.86,232.12 208.75,232.15 C212.46,232.17 217.30,231.98 219.50,231.71 C223.99,231.18 226.50,232.48 228.54,236.41 C230.03,239.29 231.56,247.42 231.18,250.50 C231.05,251.60 230.96,252.95 230.98,253.50 C231.65,268.99 231.48,280.63 230.58,281.23 C229.99,281.64 231.36,281.98 233.64,281.98 C237.34,282.00 239.00,283.11 239.00,285.58 C239.00,285.81 234.33,286.00 228.61,286.00 L 218.23 286.00 ZM 337.16 281.69 C336.05,280.36 336.17,275.50 337.34,274.33 C337.70,273.97 338.79,273.58 339.75,273.47 C344.11,272.99 344.72,272.05 344.81,265.72 C344.86,261.93 344.43,259.26 343.70,258.79 C342.95,258.32 343.44,257.97 345.00,257.86 C346.38,257.77 348.05,257.65 348.71,257.59 C351.62,257.32 353.08,252.45 353.13,242.83 C353.14,239.98 358.91,239.24 359.83,241.98 C360.06,242.69 359.85,243.02 359.34,242.71 C358.26,242.04 358.78,253.21 359.86,253.99 C360.78,254.64 360.73,261.15 359.80,262.57 C359.42,263.16 358.90,264.73 358.64,266.07 C357.85,270.24 356.88,271.89 355.55,271.38 C353.66,270.66 351.10,273.65 351.68,275.90 C352.24,278.01 348.76,280.59 346.91,279.45 C346.34,279.09 345.33,279.47 344.68,280.28 C342.99,282.40 338.45,283.25 337.16,281.69 ZM 66.69 303.35 C66.31,302.98 66.00,281.37 66.00,255.33 C66.00,208.59 66.03,208.00 68.01,208.00 C70.00,208.00 70.02,208.50 69.76,255.67 C69.51,301.39 69.22,305.89 66.69,303.35 ZM 343.27 313.00 C343.42,311.03 344.14,311.00 386.60,311.00 C428.93,311.00 429.78,311.04 430.29,313.00 C430.81,314.98 430.32,315.00 386.97,315.00 C343.74,315.00 343.13,314.97 343.27,313.00 ZM 73.69 314.36 C74.35,314.09 74.64,313.22 74.34,312.44 C73.86,311.20 79.83,311.00 116.78,311.00 C158.93,311.00 159.78,311.04 160.29,313.00 C160.81,314.98 160.34,315.00 116.66,314.92 C92.37,314.88 73.04,314.62 73.69,314.36 ZM 194.43 284.25 C194.80,281.74 197.54,281.51 197.72,283.97 C197.83,285.33 197.27,286.00 196.03,286.00 C194.83,286.00 194.27,285.38 194.43,284.25 Z" fill="rgba(255,255,254,1)"/>
<path d="M 237.00 314.00 C237.00,312.35 237.45,311.00 238.00,311.00 C238.55,311.00 239.00,312.35 239.00,314.00 C239.00,315.65 238.55,317.00 238.00,317.00 C237.45,317.00 237.00,315.65 237.00,314.00 Z" fill="rgba(246,246,246,1)"/>
</g>
</svg>